<svg width="312" height="180" viewBox="0 0 312 180" fill="none" xmlns="http://www.w3.org/2000/svg">
    <rect width="179.625" height="179.625" rx="4" opacity=".6" transform="matrix(0.866044 -0.499967 0.866044 0.499967 0.253906 89.8071)" fill="#C4C4C4"/>
    <path d="M213.732 52.7823C211.978 52.7829 186.548 51.1035 182.31 50.8518C177.925 50.6844 177.486 51.444 176.316 52.2882C175.146 53.1323 163.443 62.7552 161.981 63.7683C160.664 64.8656 160.225 65.7939 162.709 66.0462C164.902 66.2987 187.408 68.4852 192.523 69.0742L164.142 95.747L85.0805 84.2128C82.1577 83.8762 81.2809 83.7077 78.7946 85.3117C76.3083 86.9157 57.441 99.8317 55.9786 100.676C54.6623 101.605 53.6379 102.871 58.6062 104.05C63.5745 105.23 137.224 120.732 139.27 121.237C141.316 121.743 145.408 122.079 148.48 119.294C151.552 116.339 161.94 106.126 167.645 100.471C179.044 102.324 202.134 106.198 205.933 106.534C210.902 107.039 211.781 105.857 213.975 103.578C215.731 101.721 238.705 73.6157 239.584 72.2653C240.462 70.915 241.047 70.071 238.271 69.8188C236.225 69.6507 214.156 67.7171 202.61 66.7927C205.098 64.3449 214.022 55.4823 214.9 54.4695C215.924 53.3722 215.486 52.7817 213.732 52.7823ZM159.899 99.8829C159.607 100.22 143.661 115.161 142.929 115.92C142.051 116.764 141.905 116.68 141.467 116.427C140.736 116.343 65.3324 101.179 64.3093 101.095C63.4325 100.927 62.8482 100.589 63.1407 100.421C63.4332 100.252 81.1305 88.0111 81.7155 87.6734C82.4467 87.2512 82.4465 87.42 83.1773 87.5041C83.1773 87.5041 157.708 98.9554 158.877 99.1238C160.192 99.2078 160.192 99.5453 159.899 99.8829ZM229.645 72.2685C230.522 72.437 231.252 72.3524 230.375 73.1965C229.789 74.0404 207.109 100.458 206.67 101.049C206.231 101.64 205.938 101.977 203.746 101.725C201.554 101.473 171.303 96.8416 171.303 96.8416L198.222 70.338C198.807 69.6628 198.954 69.4096 200.415 69.5779C202.023 69.8305 228.914 72.1844 229.645 72.2685ZM206.275 56.0755C205.543 56.6663 195.595 66.2887 195.595 66.2887L169.727 64.0189C168.996 63.9347 168.266 63.8506 168.851 63.3441C169.436 62.8377 179.675 54.3965 180.114 53.9745C180.553 53.5525 180.846 53.2148 182.6 53.383C184.207 53.4669 205.545 54.9788 206.422 54.9785C207.299 54.9782 207.006 55.4846 206.275 56.0755Z" fill="#FB503B"/>
</svg>
