<svg width="312" height="180" viewBox="0 0 312 180" fill="none" xmlns="http://www.w3.org/2000/svg">
    <rect width="179.625" height="179.625" opacity=".6" rx="4" transform="matrix(0.866044 -0.499967 0.866044 0.499967 0 89.8071)" fill="#C4C4C4"/>
    <path fill-rule="evenodd" clip-rule="evenodd" d="M115.965 66.9473C100.126 76.0912 98.1621 86.3872 110.073 97.8353C108.077 89.8253 112.031 84.1069 121.935 80.6802C127.585 78.7251 134.099 78.7568 141.31 78.792C153.056 78.8494 166.651 78.9157 181.373 70.4171C197.212 61.2731 199.176 50.9771 187.265 39.529C189.261 47.539 185.307 53.2574 175.404 56.6841C169.753 58.6392 163.239 58.6075 156.028 58.5723C144.282 58.515 130.687 58.4486 115.965 66.9473ZM121.976 104.707C106.137 113.851 104.172 124.147 116.083 135.595C114.088 127.585 118.042 121.867 127.945 118.44C133.595 116.485 140.11 116.516 147.32 116.552C159.067 116.609 172.662 116.675 187.383 108.177C203.222 99.0328 205.187 88.7367 193.276 77.2886C195.271 85.2987 191.318 91.0171 181.414 94.4438C175.764 96.3989 169.249 96.3672 162.039 96.3319C150.292 96.2746 136.697 96.2082 121.976 104.707Z" fill="url(#paint0_linear)"/>
    <defs>
        <linearGradient id="paint0_linear" x1="53.2687" y1="103.142" x2="222.841" y2="23.9838" gradientUnits="userSpaceOnUse">
            <stop stop-color="#2298BD"/>
            <stop offset="1" stop-color="#0ED7B5"/>
        </linearGradient>
    </defs>
</svg>
